<svg width="40" height="27" viewBox="0 0 40 27" fill="none" xmlns="http://www.w3.org/2000/svg">
<path d="M1.71422 26C0.768968 26 -6.10352e-05 25.1669 -6.10352e-05 24.1429V1.85714C-6.10352e-05 0.833114 0.768968 0 1.71422 0H38.2857C39.2309 0 39.9999 0.833114 39.9999 1.85714V24.1429C39.9999 25.1669 39.2309 26 38.2857 26H1.71422Z" fill="#003399"/>
<path d="M-0.500061 24.1429C-0.500061 25.4046 0.455896 26.5 1.71422 26.5H38.2857C39.544 26.5 40.4999 25.4046 40.4999 24.1429V1.85714C40.4999 0.595407 39.544 -0.5 38.2857 -0.5H1.71422C0.455896 -0.5 -0.500061 0.595407 -0.500061 1.85714V24.1429Z" stroke="#E0F5FF" stroke-opacity="0.3"/>
</svg>
